<svg xmlns="http://www.w3.org/2000/svg" width="35" height="35" viewBox="0 0 35 35" fill="none">
  <path d="M17.5 2.91666C15.5848 2.91666 13.6885 3.29387 11.9192 4.02675C10.1498 4.75964 8.54217 5.83384 7.18799 7.18802C4.45308 9.92293 2.91663 13.6323 2.91663 17.5C2.91663 23.9458 7.10204 29.4146 12.8916 31.3542C13.6208 31.4708 13.8541 31.0187 13.8541 30.625V28.1604C9.81454 29.0354 8.95413 26.2062 8.95413 26.2062C8.28329 24.5146 7.33538 24.0625 7.33538 24.0625C6.00829 23.1583 7.43746 23.1875 7.43746 23.1875C8.89579 23.2896 9.66871 24.6896 9.66871 24.6896C10.9375 26.9062 13.0812 26.25 13.9125 25.9C14.0437 24.9521 14.4229 24.3104 14.8312 23.9458C11.5937 23.5812 8.19579 22.3271 8.19579 16.7708C8.19579 15.1521 8.74996 13.8542 9.69788 12.8187C9.55204 12.4542 9.04163 10.9375 9.84371 8.96875C9.84371 8.96875 11.0687 8.575 13.8541 10.4562C15.0062 10.1354 16.2604 9.975 17.5 9.975C18.7395 9.975 19.9937 10.1354 21.1458 10.4562C23.9312 8.575 25.1562 8.96875 25.1562 8.96875C25.9583 10.9375 25.4479 12.4542 25.302 12.8187C26.25 13.8542 26.8041 15.1521 26.8041 16.7708C26.8041 22.3417 23.3916 23.5667 20.1395 23.9312C20.6645 24.3833 21.1458 25.2729 21.1458 26.6292V30.625C21.1458 31.0187 21.3791 31.4854 22.1229 31.3542C27.9125 29.4 32.0833 23.9458 32.0833 17.5C32.0833 15.5849 31.7061 13.6885 30.9732 11.9192C30.2403 10.1499 29.1661 8.54221 27.8119 7.18802C26.4577 5.83384 24.8501 4.75964 23.0808 4.02675C21.3114 3.29387 19.4151 2.91666 17.5 2.91666Z" fill="white"/>
</svg>