<svg xmlns="http://www.w3.org/2000/svg" width="35" height="35" viewBox="0 0 35 35" fill="none">
  <path d="M10.9944 32.8125C24.2025 32.8125 31.4278 21.8684 31.4278 12.3944C31.4278 12.0881 31.4278 11.7775 31.4147 11.4713C32.8214 10.4529 34.0354 9.19221 35 7.74813C33.686 8.32749 32.2935 8.70933 30.8678 8.88126C32.3696 7.98359 33.4944 6.57119 34.0331 4.90657C32.6222 5.74246 31.0778 6.32926 29.4678 6.64126C28.3854 5.4885 26.9531 4.72483 25.3927 4.46854C23.8323 4.21225 22.231 4.47765 20.8367 5.22362C19.4424 5.96959 18.333 7.15451 17.6804 8.59483C17.0277 10.0351 16.8682 11.6505 17.2266 13.1906C14.3713 13.0475 11.578 12.3057 9.02791 11.0135C6.47778 9.7213 4.22775 7.90748 2.42375 5.68969C1.50793 7.27144 1.22844 9.14245 1.64204 10.9228C2.05563 12.7031 3.13131 14.2593 4.65062 15.2753C3.51212 15.2366 2.39864 14.9309 1.4 14.3828V14.4813C1.40196 16.1382 1.97598 17.7437 3.02504 19.0264C4.07409 20.309 5.53382 21.19 7.1575 21.5206C6.5412 21.6904 5.90456 21.7751 5.26531 21.7722C4.81465 21.7736 4.36489 21.7318 3.92219 21.6475C4.3811 23.0739 5.27466 24.321 6.47773 25.2142C7.68079 26.1074 9.13311 26.6019 10.6313 26.6284C8.08622 28.6274 4.94244 29.7115 1.70625 29.7063C1.13601 29.7087 0.566176 29.6758 0 29.6078C3.28456 31.7018 7.09909 32.8137 10.9944 32.8125Z" fill="white"/>
</svg>